<svg id="Layer_1" data-name="Layer 1" xmlns="http://www.w3.org/2000/svg" viewBox="0 0 80 80"><defs><style>.cls-1{fill:#bbb;}</style></defs><title>dashed_border</title><path class="cls-1" d="M38,3H18a2,2,0,0,0,0,4H38a2,2,0,0,0,0-4ZM7,5.13a2,2,0,0,0-1.43.61A8.9,8.9,0,0,0,3,12V28.15a2,2,0,0,0,4,0V12H7v0h0v-.08h0l.06-.21h0v0h0a4.94,4.94,0,0,1,1.22-2.1A2,2,0,0,0,7,5.13Zm-2,31a2,2,0,0,0-2,2v20a2,2,0,0,0,4,0v-20a2,2,0,0,0-2-2ZM5,66.21H4.94A2,2,0,0,0,3,68.27,9.07,9.07,0,0,0,12,77H24.3a2,2,0,0,0,0-4H10.39l-.09,0H10l-.14-.06H9.7l-.26-.15h0l0,0h0A5,5,0,0,1,7,68.15a2,2,0,0,0-2-1.94ZM54.3,73h-20a2,2,0,0,0,0,4h20a2,2,0,1,0,0-4ZM75,57.55a2,2,0,0,0-2,2V68h0a5,5,0,0,1-5,5H64.3a2,2,0,0,0,0,4H68a9,9,0,0,0,9-9V59.55a2,2,0,0,0-2-2Zm0-30a2,2,0,0,0-2,2v20a2,2,0,0,0,4,0v-20a2,2,0,0,0-2-2ZM68,3H48a2,2,0,0,0,0,4H68a5,5,0,0,1,5,5v7.55a2,2,0,0,0,4,0V12a9,9,0,0,0-9-9Z"/></svg>