<?xml version="1.0" encoding="UTF-8"?>
<!DOCTYPE svg PUBLIC "-//W3C//DTD SVG 1.1//EN" "http://www.w3.org/Graphics/SVG/1.1/DTD/svg11.dtd">
<!-- Creator: CorelDRAW 2019 (64-Bit) -->
<svg xmlns="http://www.w3.org/2000/svg" xml:space="preserve" width="260.89mm" height="52.0641mm" version="1.1" style="shape-rendering:geometricPrecision; text-rendering:geometricPrecision; image-rendering:optimizeQuality; fill-rule:evenodd; clip-rule:evenodd"
viewBox="0 0 26117.67 5212.12"
 xmlns:xlink="http://www.w3.org/1999/xlink"
 xmlns:xodm="http://www.corel.com/coreldraw/odm/2003">
 <defs>
  <style type="text/css">
   <![CDATA[
    .fil1 {fill:#ECECEC}
    .fil0 {fill:#EEBF16}
   ]]>
  </style>
 </defs>
 <g id="Слой_x0020_1">
  <metadata id="CorelCorpID_0Corel-Layer"/>
  <g id="_2235744246352">
   <path class="fil0" d="M2797.08 1474.22c0,229.17 10.83,168.64 -182.73,427.54l-319.35 375.69c-55.6,55.55 -300.38,354.4 -345.52,366.45 0,-107.36 -0.06,-214.73 0,-322.08 0.06,-108.75 -8.48,-198.1 -8.48,-313.61 0,-105.85 3.42,-217.24 0.28,-322.36 -2.92,-97.57 -23.27,-202.02 6.94,-306.12 64.59,-222.63 234.82,-157 467.88,-176.29 137.92,-11.41 293.96,-16.5 352.28,129.96 16.19,40.66 28.7,88.02 28.7,140.82zm-2797.08 110.19l0 2212.23c0,196.68 78.29,326.11 228.84,406.87 247.59,132.81 556.05,326.21 811.09,468.77 215.36,120.38 464.47,274.94 672.22,387.28l203.85 118.23c21.16,12.32 48.49,32.06 75.85,34.34 -23.32,-100.1 -8.48,-310.78 -8.48,-432.27 0.02,-353.49 -16.95,-734.73 -16.95,-1101.88 0,-36.13 1.35,-74.67 0.28,-110.47 -5.29,-176.75 -47.81,-339.3 62.61,-479.3l497.63 -621.2c30.25,-38.33 69.48,-94.33 134.52,-94.33 160.45,0 143.73,160.41 143.8,229.14 0.07,59.67 8.81,107.06 8.77,177.7l8.19 932.65c0.08,59.7 8.81,107.04 8.76,177.69l8.48 550.94c0,62.16 0.26,124.38 -0.06,186.52 -0.36,70.15 8.83,105.99 8.56,177.92 -0.23,62.16 0.01,124.34 -0.02,186.5 -0.05,74.21 8.47,120.96 8.47,186.46 28.44,-6.63 46.26,-18.08 69.47,-32.25l194.92 -110.22c285.97,-171.91 635.55,-350.78 925.82,-523.55 45.65,-27.18 85.81,-46.2 130.41,-73.02l264.76 -150.56c73.59,-42.48 199.54,-102.72 256.18,-159.14 64.87,-64.6 124.86,-164.71 124.86,-290.46l0 -2288.52c0,-305.8 -272.71,-383.92 -481.49,-510.2l-157.12 -88.69c-420.75,-229.85 -853.19,-487.88 -1274.05,-717.8 -28.52,-15.58 -53.66,-29.92 -80.82,-46.32l-238.47 -134.48c-131.73,-71.57 -264.28,-68.84 -395.7,-2.86 -52.19,26.2 -104.37,57.28 -157.36,88.44 -107.91,63.43 -209.98,121.86 -316.75,183.33 -208.66,120.12 -419.45,243.47 -628.1,363.59l-784.92 452.58c-53.55,29.25 -112.32,61.35 -156.82,97.46 -91.29,74.09 -151.23,185.13 -151.23,348.86z"/>
   <path class="fil1" d="M21334.02 2754.09l9.75 16.53 -9.75 -16.53zm0 0c-20.94,-24.1 -88.34,-183.55 -102.93,-219.15 -9.52,-23.25 -21.67,-52.59 -32.83,-77.36 -85.72,-190.54 -158.32,-325.74 -248.38,-505.97l-257.17 -497.2c-25.75,-52.04 -44.3,-101.61 -113.01,-107.36 -123.21,-10.31 -303.47,-0.6 -432.78,-0.45 -157.62,0.19 -118.19,156.82 -118.19,314.09 0,251.34 -9.35,1639.24 0.64,1728.46 6.68,59.66 50.03,93.01 117.52,94.37 78.51,1.57 359.28,13.64 409.29,-24 50.23,-37.8 40.46,-97.21 40.44,-179.94 -0.14,-511.08 5.19,-524.94 -50.86,-1025.59 -7.05,-62.99 -20.4,-134.55 -25.43,-194.94l36.36 65.35c13.04,30.84 21.43,47.4 33.88,76.3 23.62,54.83 44.69,98.87 67.81,152.58 22.6,52.49 42.91,98.14 65.1,146.79 5.07,11.09 9.98,23.51 15.96,34.9l351.61 682.47c25.2,50.41 45.58,90.76 70.6,141.29 26.79,54.1 47.48,104.26 100.88,119.5 52.12,14.87 348.57,4.86 427.81,5.1 179.37,0.54 143.78,-118.3 143.78,-288.5l0 -1296.83c0,-143.32 3.04,-289.8 0.41,-432.68 -2.88,-157.11 -151.53,-118.25 -314.02,-118.25 -187.59,0 -254.81,-37.7 -254.29,177.99 0.34,144.08 0.01,288.21 0.01,432.28 0,149.18 25.87,442.91 47.19,596.98 9.25,66.88 20.61,131.57 20.61,199.76z"/>
   <path class="fil1" d="M6696.02 1465.74l0 1898.62c0,74.16 44.5,118.66 118.66,118.66l339.04 0c56.18,0 110.19,-39.49 110.19,-93.23 0,-480.42 13.67,-660.45 -48.31,-1129.86 -8.65,-65.49 -19.5,-125.28 -19.5,-192.39 26.18,30.11 154.21,338.39 169.67,372.8 120.63,268.52 321.9,627.25 460.38,904.25 31.42,62.86 50.54,138.43 141.26,138.43l423.79 0c56.18,0 110.19,-39.49 110.19,-93.23l0 -1949.48c0,-49.52 -43.71,-93.23 -93.23,-93.23l-364.47 0c-71.87,0 -110.19,47.66 -110.19,118.66l25.43 873.03c4.35,70.93 17.02,145.24 24.72,212.61 7.47,65.34 26.14,158.44 26.14,219.66l-630.79 -1284.77c-108.15,-180.6 -26.55,-139.19 -572.8,-139.19 -71.87,0 -110.18,47.66 -110.18,118.66z"/>
   <path class="fil1" d="M18384.38 3093.13c-54.88,0 -294.95,-152.11 -343.82,-181.7l-241.54 -139.87c-26.95,-19.33 -41.87,-48.57 -41.87,-93.75l0 -576.36c0,-71.74 36.39,-89.33 74.63,-111.85 70.17,-41.32 508.77,-303.47 544.12,-303.47 46.23,0 142.71,65.34 183.56,87.67l346.82 195.64c68.79,40.65 113.79,50.06 113.79,157.44l0 525.51c0,136.52 -126.15,158.76 -281.35,252.64 -58.16,35.18 -112.07,64.92 -173.54,97.7 -37.28,19.88 -142,90.42 -180.81,90.42zm-1101.88 -1245.98l0 1084.93c0,62.85 39.66,113.67 79.75,140.62l844.14 486.59c184,99.67 186.93,93.81 410.45,-38.76 142.03,-84.24 714.14,-394.29 805.38,-457.55 42.34,-29.35 72.51,-87.92 72.51,-156.33l0 -1034.07c0,-67.79 -23.76,-116.09 -73.56,-155.29 -19.42,-15.29 -45.13,-29.62 -67.9,-42.28l-807.85 -455.08c-194.49,-105.36 -191.91,-90.88 -467.86,74.6l-568.87 329.57c-26.56,15.96 -42.95,24.18 -70.01,40.18 -25.53,15.1 -46.72,25.18 -70.03,40.16 -41.32,26.56 -86.14,77.39 -86.14,142.7z"/>
   <path class="fil1" d="M24639.65 1457.27l0 1924.04c0,50.93 50.79,101.71 101.71,101.71l1254.44 0c152.51,0 118.67,-173.45 118.67,-347.51 0,-98.13 -43.32,-136.24 -143.78,-135.93 -93.09,0.28 -642.71,15.44 -690.46,-13.04 -65.62,-39.15 -47.27,-161.11 -47.27,-257.87 0,-139.21 228.1,-101.71 355.99,-101.71 54.32,0 287.87,12.56 324.32,-14.73 18.38,-13.76 40.15,-48.81 40.15,-78.51l0 -288.19c0,-78.37 -68.16,-94.03 -135.39,-93.46l-458.33 0.63c-149.85,-0.61 -126.74,-107.03 -126.74,-229.25 0,-111.99 124.75,-93.3 169.52,-93.24l534.33 0.34c180.33,-4.12 143.76,-139.45 143.76,-347.85 0,-70.78 -30.32,-135.62 -101.71,-135.62l-1245.97 0c-53.74,0 -93.23,54.01 -93.23,110.19z"/>
   <path class="fil1" d="M11306.95 1431.84l0 1957.95c0,57.32 51.33,93.23 110.19,93.23l1254.45 0c26.99,0 54.61,-16.69 70.5,-31.2 52.05,-47.58 31.21,-224.23 31.21,-341.73 0,-98.13 -75.93,-110.94 -152.45,-110.31 -76.77,0.63 -628.67,8.53 -664.25,-5.35 -79.94,-31.18 -56.33,-152.4 -56.33,-274.24 0,-131.1 241.61,-93.23 372.94,-93.23 384.13,0 347.52,46.69 347.52,-355.99 0,-72.66 -38.27,-116.07 -109.88,-118.97 -94.92,-3.84 -500.38,13.47 -556.98,-10.91 -75.09,-32.35 -53.6,-113.52 -53.6,-226.11 0,-34.62 27.86,-65.29 50.55,-76.59 60.4,-30.08 655.31,18.38 737.79,-25.05 23.61,-12.43 50.79,-49.08 50.79,-84.83l0 -288.19c0,-45.51 -47.72,-93.23 -93.23,-93.23l-1245.98 0c-44.36,0 -93.23,37.87 -93.23,84.76z"/>
   <path class="fil1" d="M13341.18 1974.3c0,126.42 37.98,229.95 96.74,327.06 20.17,33.34 39.51,51.38 63.01,81.09 27.42,34.66 121.01,104.75 162.22,125.97 121.52,62.55 269.25,117.6 398.5,169.39 120.6,48.31 358.73,108.99 291.01,256.87 -42.44,92.66 -173.07,90.64 -265.58,90.64 -202.75,0 -405.89,-169.52 -466.18,-169.52 -64.01,0 -98.76,46.06 -139.19,98.13l-113.84 131.96c-29.77,36.92 -60.57,48.27 -60.57,108.95 0,108.91 204.2,190.2 291.8,225.23 232.48,92.96 330.67,96.86 572.75,96.86 206.65,0 429.1,-84.43 543.83,-176.63 178.14,-143.17 252.92,-287.5 252.92,-543.83 0,-502.93 -549.54,-570.38 -906.9,-728.96 -177.86,-78.94 -134.13,-204.36 -19.58,-248.38 106.87,-41.07 280.48,-10.65 380.54,31.51 216,91.02 160.61,147.4 394.59,-137.88 95.48,-116.43 50.27,-167.27 -70.59,-245.45 -95.37,-61.71 -238.51,-115.13 -353.55,-138.06 -291.49,-58.13 -580.91,-6.02 -791.66,150.94 -131.31,97.8 -260.25,269.07 -260.25,494.12z"/>
   <path class="fil1" d="M22461.32 1974.3c0,158.79 80.23,353.53 194.89,440.8 17.45,13.28 24.2,21.23 41.18,35.11 26.83,21.94 54.98,42.29 85.88,58.2 121.52,62.55 269.25,117.6 398.51,169.39 120.64,48.33 358.66,108.93 290.95,256.93 -42.37,92.59 -173.07,90.58 -265.52,90.58 -202.76,0 -405.9,-169.52 -466.18,-169.52 -60.46,0 -71.99,24.96 -103.96,57.08l-149.07 173.01c-29.77,36.92 -60.58,48.27 -60.58,108.95 0,173.66 546.93,322.08 720.46,322.08 333.17,0 481.1,-21.24 728.95,-211.88 110.6,-85.06 211.88,-279.64 211.88,-423.81 0,-194.39 -9.79,-275.97 -123.38,-427.57 -58.31,-77.84 -178.95,-153.07 -274.98,-191.19 -144.98,-57.55 -377.73,-136.92 -508.54,-194.96 -177.86,-78.94 -134.13,-204.36 -19.59,-248.38 108.55,-41.72 283.17,-10.97 386.52,34.02 204.01,88.79 165.15,123.13 322.2,-62.7 71.45,-84.54 116.05,-110.26 116.05,-197.57 0,-83.63 -213.85,-178.91 -284.46,-207.14 -559.33,-223.67 -1241.21,46.55 -1241.21,588.57z"/>
   <path class="fil1" d="M15290.65 1440.31l0 296.67c0,192.54 472.82,15.84 561.18,125.38 10.72,13.3 19.44,38.87 21.89,54.39l1.77 1371.33c-0.06,234.94 9.62,194.94 474.65,194.94 112.34,0 118.95,-73.73 118.68,-186.45l-0.01 -1237.51c0,-273.12 -17.09,-230.34 389.92,-228.82 234.03,0.87 194.92,-50.73 194.92,-381.45 0,-26.99 -16.69,-54.62 -31.21,-70.5 -19.95,-21.82 -40.42,-31.21 -78.98,-31.21l-1559.58 0c-49.52,0 -93.23,43.71 -93.23,93.23z"/>
   <path class="fil1" d="M5416.15 1499.64l0 1830.81c0,92.71 25.92,152.57 118.66,152.57 95.92,0 385.95,15.78 437.65,-20.05 12.55,-8.69 37.01,-40.13 37.01,-56.23l0 -1974.89c0,-46.89 -48.87,-84.76 -93.24,-84.76l-398.37 0c-84.53,0 -101.71,82.52 -101.71,152.57z"/>
   <path class="fil1" d="M9798.22 3483.02c126.27,0 256.04,3.01 381.82,0.41 128.61,-2.67 117.63,-80.28 165.84,-224.06l275.59 -894.1c30.1,-98.2 60.02,-201.53 91.1,-298.8 12.4,-38.81 179.05,-571.15 179.05,-600.74 0,-57.72 -15.54,-118.66 -93.23,-118.66l-398.37 0c-101.45,0 -104.65,131.35 -125.42,213.62l-266.1 1098.53c-21.65,87.17 -41.33,189.75 -70.25,277.26l-140.03 546.52z"/>
   <path class="fil1" d="M8942.15 1448.79c0,28.74 89.27,300.33 104.76,352.94l327.51 1071.02c24.9,-18.24 27.36,-67.12 40.66,-120.37l200.06 -808.59c40.38,-161.56 41.14,-113.38 1.68,-271.23 -96.29,-385.21 4.73,-325.49 -564.5,-325.49 -74.77,0 -110.18,61.56 -110.18,101.71z"/>
   <path class="fil1" d="M10357.63 4779.85c-97.56,0 -76.28,-81.72 -76.28,-203.42 0,-110.39 194.56,-51.33 211.86,-42.35 84.88,44.05 135.3,245.77 -135.58,245.77zm8.48 -347.52c-100.8,0 -84.76,-10.42 -84.76,-178 0,-63.49 34.14,-50.86 110.19,-50.86 31.42,0 70.52,14.18 90.26,28.41 49.19,35.45 76.51,200.44 -115.69,200.44zm-161.05 -254.28l0 618.75c0,77.48 75.03,59.34 178,59.34 357.21,0 286.5,-354.14 152.57,-389.9l0 -16.95c49.65,-13.26 67.81,-99.06 67.81,-127.14 0,-194.44 -159.21,-203.42 -330.56,-203.42 -39.12,0 -67.81,18.76 -67.81,59.33z"/>
   <path class="fil1" d="M5416.15 4474.72c0,211.47 160.15,389.89 347.51,389.89l93.24 0c115.71,0 267.32,-105.41 288.18,-194.94 -174.36,0 -113.46,118.66 -355.99,118.66 -142.45,0 -279.71,-136.28 -279.71,-279.71l0 -42.38c0,-223.8 298.24,-369.28 480.6,-217.84 77.68,64.51 81.01,54.51 163.58,73.75 -4.33,-52.08 -75.61,-116.41 -111.2,-143.09 -89.54,-67.09 -156.96,-68.82 -261.74,-68.82 -200.56,0 -364.47,188.72 -364.47,364.47z"/>
   <path class="fil1" d="M8620.06 4186.53c0,153.25 -19.76,479.93 45.6,590.1 83.98,141.54 446.01,160.76 446.01,-157.82l0 -466.18c0,-35.25 -31.4,-33.9 -50.86,-33.9 -41.88,0 -25.43,103.42 -25.43,186.46 0,172.44 39.54,491.61 -161.05,491.61 -170.72,0 -169.58,-165.73 -169.52,-271.23l0.44 -331.01c0.83,-68.24 -2.21,-75.83 -51.3,-75.83 -29.76,0 -33.91,37.61 -33.91,67.8z"/>
   <path class="fil1" d="M7179.15 4152.62l0 661.12c0,19.77 22.61,42.39 42.38,42.39l296.67 0c30.29,0 47.99,-38.93 35.29,-59.76 -29.97,-49.18 -196.31,20.49 -289.57,-41.96l0.01 -500.1c0.22,-93.58 10.24,-135.6 -50.87,-135.6 -19.84,0 -33.91,14.06 -33.91,33.9z"/>
  </g>
 </g>
</svg>
